<svg xmlns="http://www.w3.org/2000/svg" viewBox="0 0 556.69 92.33"><defs><style>.cls-1{fill:#0068b7;}</style></defs><title>logo</title><g id="レイヤー_2" data-name="レイヤー 2"><g id="レイヤー_1-2" data-name="レイヤー 1"><path class="cls-1" d="M7,.54a7,7,0,0,0,0,14h2.7v61a7.61,7.61,0,0,0,0,.8C10.48,82.66,15.53,92,26.46,92h28.9a17.64,17.64,0,0,0,12.33-4.57,15.8,15.8,0,0,0,4.67-11.8,7,7,0,1,0-14,0c0,1.09,0,2.33-2.57,2.34H26.46c-1.77,0-2.44-1.57-2.7-3V7.56a7,7,0,0,0-7-7Z"/><path class="cls-1" d="M517.27,9.36V85a7,7,0,0,0,7,7H534a7,7,0,1,0,0-14h-2.69V9.36a7,7,0,0,0-14,0Z"/><path class="cls-1" d="M496,5.28a15.64,15.64,0,0,0-4.64,11.64,7,7,0,0,0,14,0,2.69,2.69,0,0,1,.34-1.54,4.87,4.87,0,0,1,2.76-.8h30.92c.68,0,2.77,0,3.3,3.31a7,7,0,0,0,13.92-1.82c-.76-6.24-6-15.53-17.22-15.53H508.88C507.59.5,500.92.52,496,5.28Z"/><path class="cls-1" d="M70.55,7.56a7,7,0,0,0,7,7c1.77,0,2.44,1.57,2.7,3V85a7,7,0,0,0,7,7H97a7,7,0,0,0,0-14h-2.7v-61c0-.27,0-.54,0-.81C93.54,9.85,88.5.54,77.57.54A7,7,0,0,0,70.55,7.56Z"/><path class="cls-1" d="M261.61.57a7,7,0,0,0-6.39,7V77.93h-3.06a7,7,0,1,0,0,14h10.08a7,7,0,0,0,7-7V58.13c31.69,34.17,38.55,34.2,41.21,34.2h4.68a7,7,0,0,0,0-14h-3.84C307.39,76.49,295.66,65.4,284,53.2c12.46-1.7,21.69-5.64,27.46-11.84a21.3,21.3,0,0,0,6.08-14.22c0-.09,0-.1,0-.18a21.45,21.45,0,0,0-7.16-16.16C296.2-2.12,265.11.26,261.61.57Zm39.25,20.59A7.35,7.35,0,0,1,303.45,27c0,.1,0,.4,0,.5l0-.29c-.09,4.45-7.4,12.8-34.2,12.92V14.27C280.28,14.11,294.89,15.7,300.86,21.16ZM317.49,27s0,0,0,0c0-.17,0-.33,0-.5C317.48,26.58,317.48,26.77,317.49,27Z"/><path class="cls-1" d="M108.89.54a7,7,0,0,0,0,14h2.7V85.31a7,7,0,1,0,14,0V7.56a7,7,0,0,0-7-7Z"/><path class="cls-1" d="M154.25.54a7,7,0,0,0,0,14h2.7v61a6.23,6.23,0,0,0,0,.8c.72,6.26,5.76,15.58,16.69,15.58a7,7,0,1,0,0-14c-1.77,0-2.44-1.57-2.7-3V7.56a7,7,0,0,0-7-7Z"/><path class="cls-1" d="M115.89,3.09a7,7,0,0,0-2.11,9.7l45.35,70.56a7,7,0,0,0,11.81-7.59L125.59,5.2A7,7,0,0,0,115.89,3.09Z"/><path class="cls-1" d="M188.89,9.17A24.4,24.4,0,0,0,181.78,27s-.36,38.74-.36,39,0,.43,0,.73a23.71,23.71,0,0,0,6.24,15.85C193.38,88.82,202.25,92,214,92c10.28-.16,29.77-5.58,30.74-25a7,7,0,0,0-14-.71c-.55,11-15.64,11.63-16.78,11.66-7.42,0-12.89-1.63-15.84-4.7a9.68,9.68,0,0,1-2.66-6.44v0c0-.14,0-.36,0-.5l.36-39.23c0-3.42.92-5.9,2.89-7.86,4.16-4.14,12.13-5,14.85-5,15.83,0,17.15,9.48,17.17,12.39a7.06,7.06,0,0,0,7,7,7,7,0,0,0,7-6.84,26.58,26.58,0,0,0-7.43-18C231.77,3.06,223.79.18,213.64.18,212.15.16,198,.22,188.89,9.17Z"/><path class="cls-1" d="M471.12.54h-28.9c-10.93,0-16,9.31-16.69,15.57,0,.27,0,.54,0,.81v61h-2.69a7,7,0,0,0,0,14h9.72a7,7,0,0,0,7-7V17.57c.26-1.42.93-3,2.7-3h29.29c2.56,0,2.56,1.25,2.56,2.34a7,7,0,0,0,14,0,15.8,15.8,0,0,0-4.67-11.8A17.66,17.66,0,0,0,471.12.54Z"/><circle class="cls-1" cx="451.22" cy="46.44" r="9"/><path class="cls-1" d="M368.45,0a7,7,0,0,0-6.59,4.61L335.1,77.75h-1.81a7,7,0,0,0,0,14H340a7,7,0,0,0,6.59-4.61l21.86-59.74,21.86,59.74a7,7,0,0,0,6.59,4.61H404a7,7,0,0,0,0-14h-2.21L375,4.61A7,7,0,0,0,368.45,0Z"/><circle class="cls-1" cx="368.65" cy="61.91" r="9"/></g></g></svg>