<svg xmlns="http://www.w3.org/2000/svg" viewBox="0 0 253.75 289.8"><defs><style>.cls-1{fill:#2980d9;}.cls-10,.cls-12,.cls-13,.cls-2,.cls-4,.cls-5,.cls-6,.cls-7,.cls-8{fill:#fff;}.cls-10,.cls-11,.cls-14,.cls-2,.cls-3,.cls-9{stroke:#2980d9;stroke-miterlimit:10;}.cls-11,.cls-14,.cls-2{stroke-width:2px;}.cls-11,.cls-14,.cls-3,.cls-9{fill:none;}.cls-14,.cls-3{stroke-linecap:round;}.cls-3{stroke-width:3px;}.cls-4{font-size:18.73px;}.cls-10,.cls-12,.cls-13,.cls-4,.cls-6,.cls-7,.cls-8{font-family:IcoMoon-Free, IcoMoon-Free;}.cls-6{font-size:24.57px;}.cls-7{font-size:21.24px;}.cls-8{font-size:23.95px;}.cls-10{font-size:37.6px;}.cls-12{font-size:22.64px;}.cls-13{font-size:21.17px;}.cls-15{fill:#001f35;}</style></defs><title>icon-15</title><g id="レイヤー_2" data-name="レイヤー 2"><g id="iot_bus" data-name="iot bus"><ellipse class="cls-1" cx="235.36" cy="93.25" rx="17.52" ry="17.18"/><path class="cls-2" d="M163,101.6V155c0,1.26-1.4,2.41-3.57,2.92l-27.59,6.47"/><line class="cls-3" x1="131.15" y1="45.77" x2="131.15" y2="198.61"/><text class="cls-4" transform="translate(225.81 101.39) scale(1.02 1)">write2</text><ellipse class="cls-1" cx="44.31" cy="100.02" rx="25.56" ry="25.07"/><ellipse class="cls-1" cx="162.45" cy="103.03" rx="19.37" ry="19"/><ellipse class="cls-1" cx="231.2" cy="152.99" rx="22.56" ry="22.12"/><ellipse class="cls-1" cx="205.64" cy="56.95" rx="22.75" ry="22.32"/><path class="cls-5" d="M217.26,49.62a1.61,1.61,0,0,1,1.17.48,1.55,1.55,0,0,1,.49,1.15V65.91a1.55,1.55,0,0,1-.49,1.15,1.61,1.61,0,0,1-1.17.48H194a1.61,1.61,0,0,1-1.17-.48,1.55,1.55,0,0,1-.49-1.15V51.25a1.55,1.55,0,0,1,.49-1.15,1.61,1.61,0,0,1,1.17-.48h5.81a13.16,13.16,0,0,1,.78-2.24,1.72,1.72,0,0,1,1.71-1H209a1.72,1.72,0,0,1,1.71,1,13.16,13.16,0,0,1,.78,2.24ZM205.64,65.81a7.2,7.2,0,0,0,2.87-.57,7.54,7.54,0,0,0,2.34-1.55,7.38,7.38,0,0,0,1.58-2.29,7.07,7.07,0,0,0,0-5.62,7.38,7.38,0,0,0-1.58-2.29,7.54,7.54,0,0,0-2.34-1.55,7.46,7.46,0,0,0-5.73,0,7.54,7.54,0,0,0-2.34,1.55,7.38,7.38,0,0,0-1.58,2.29,7.07,7.07,0,0,0,0,5.62,7.38,7.38,0,0,0,1.58,2.29,7.54,7.54,0,0,0,2.34,1.55A7.2,7.2,0,0,0,205.64,65.81Zm-5.4-7.23a5,5,0,0,1,.43-2.06,5.37,5.37,0,0,1,1.15-1.68,5.49,5.49,0,0,1,1.71-1.13,5.47,5.47,0,0,1,4.2,0,5.49,5.49,0,0,1,1.71,1.13,5.37,5.37,0,0,1,1.15,1.68,5.18,5.18,0,0,1,0,4.12,5.37,5.37,0,0,1-1.15,1.68,5.49,5.49,0,0,1-1.71,1.13,5.47,5.47,0,0,1-4.2,0,5.49,5.49,0,0,1-1.71-1.13,5.37,5.37,0,0,1-1.15-1.68A5,5,0,0,1,200.24,58.58Zm17-4.07V52.88h-3.32v1.63Z"/><ellipse class="cls-1" cx="131.15" cy="29.6" rx="30.18" ry="29.6"/><ellipse class="cls-1" cx="18.48" cy="149.39" rx="18.48" ry="18.12"/><ellipse class="cls-1" cx="94.59" cy="112.89" rx="21.19" ry="19.72"/><text class="cls-6" transform="translate(81.39 123.53) scale(1.07 1)">mail</text><text class="cls-7" transform="translate(151.62 112.26) scale(1.02 1)">tool</text><text class="cls-8" transform="translate(218.99 163.4) scale(1.02 1)">drink</text><path class="cls-9" d="M176.62,108.8"/><path class="cls-3" d="M93.41,128.91v52.2c0,2.34,1.35,4.59,3.76,6.26l16.26,11.25"/><text class="cls-10" transform="translate(111.31 44.97) scale(1.02 1)">cogs</text><path class="cls-11" d="M46.3,104.77V148c0,1.21,1.37,2.33,3.61,2.94l66.18,18c2,.55,3.27,1.56,3.27,2.66v27.07"/><path class="cls-11" d="M144.39,181.66l94-12.28c2.88-.38,4.65-1.07,4.65-1.82V149.08"/><text class="cls-12" transform="translate(32.77 109.85) scale(1.02 1)">travel</text><text class="cls-13" transform="translate(7.69 158.58) scale(1.02 1)">key2</text><path class="cls-14" d="M16.75,158.58v21.28c0,1.61,3,3,7.36,3.39l129.13,11.06c2.79.24,4.77,1.15,4.77,2.2v2.1"/><path class="cls-11" d="M203.64,70.5v55.68c0,.91-.95,1.73-2.37,2L148.91,139.9c-2.45.55-4.07,1.95-4.07,3.51v55.2"/><path class="cls-11" d="M233.59,100.51v10.24c0,2.75-3,5.14-7.21,5.78L119.5,132.72c-4.82.73-8.23,3.43-8.3,6.56l-1.54,68.41"/><rect class="cls-5" x="58.95" y="207.68" width="137" height="47.05"/><rect class="cls-5" x="79.83" y="269.5" width="13.96" height="13.96"/><rect class="cls-5" x="164.83" y="269.5" width="13.96" height="13.96"/><path class="cls-15" d="M184.55,198.61H66.41a8.73,8.73,0,0,0-8.28,6L49.53,231a25.08,25.08,0,0,0-1.23,7.89v37.56H67.94c0-.2,0-.41,0-.61a18.89,18.89,0,1,1,37.79,0c0,.21,0,.41,0,.61h46.66c0-.2,0-.41,0-.61a18.89,18.89,0,1,1,37.79,0c0,.21,0,.41,0,.61h16.69V220.81A22.2,22.2,0,0,0,184.55,198.61ZM78.75,250.29a2.25,2.25,0,0,1-2.25,2.24H64a2.25,2.25,0,0,1-2.25-2.24V238.77a13.87,13.87,0,0,1,.69-4.34l7.31-22.5a2.26,2.26,0,0,1,2.14-1.55h4.6a2.25,2.25,0,0,1,2.25,2.25v37.67Zm39.85-17.39a1.12,1.12,0,0,1-1.13,1.13H91.62a1.12,1.12,0,0,1-1.12-1.13V211.5a1.13,1.13,0,0,1,1.12-1.13h25.86a1.13,1.13,0,0,1,1.13,1.13Zm38.53,0A1.12,1.12,0,0,1,156,234H129.19a1.12,1.12,0,0,1-1.12-1.13V211.5a1.13,1.13,0,0,1,1.12-1.13H156a1.13,1.13,0,0,1,1.12,1.13v21.41Zm36.12-1.12A2.25,2.25,0,0,1,191,234H170.31a2.25,2.25,0,0,1-2.25-2.25V212.62a2.25,2.25,0,0,1,2.25-2.25h12.16a10.82,10.82,0,0,1,10.8,10.8Z"/><path class="cls-15" d="M86.8,261.92a13.94,13.94,0,1,0,13.94,13.94A13.94,13.94,0,0,0,86.8,261.92Zm0,19.77a5.83,5.83,0,1,1,5.83-5.83A5.83,5.83,0,0,1,86.8,281.7Z"/><path class="cls-15" d="M171.19,261.92a13.94,13.94,0,1,0,13.94,13.94A13.94,13.94,0,0,0,171.19,261.92Zm0,19.77a5.83,5.83,0,1,1,5.83-5.83A5.83,5.83,0,0,1,171.19,281.7Z"/></g></g></svg>