<svg xmlns="http://www.w3.org/2000/svg" viewBox="0 0 265.93 249.85"><defs><style>.cls-1{fill:#001f35;}.cls-2{fill:#fff;}.cls-3{fill:#2980d9;}</style></defs><title>icon-09</title><g id="レイヤー_2" data-name="レイヤー 2"><g id="e-larning_IOS" data-name="e-larning IOS"><path class="cls-1" d="M198.56,234.5,264.48,81.88c1.1,2.85,1,4.66,1.32,8.29a32.91,32.91,0,0,1-1.86,14.16l-48.16,133c-2.17,6.36-3.86,8.94-5.39,10-4.22,2.92-5.57,2.45-12.82,2.45l-77.41-2.32c-7.73-.77-12.42-11.17-11.6-18.61Z"/><path class="cls-2" d="M157.21,231.88a18.82,18.82,0,0,0,11-3.8,20.55,20.55,0,0,0,7.53-9.34q2.17-5.54-.22-9.34t-8-3.8a18.83,18.83,0,0,0-11,3.8,20.53,20.53,0,0,0-7.53,9.34q-2.17,5.54.22,9.34T157.21,231.88Z"/><polygon class="cls-2" points="168.28 73.71 259.85 73.71 210.39 200.84 117.66 200.84 168.28 73.71"/><path class="cls-1" d="M254.44,75.72q6.43,0,9.21,4.5T264,91.17L212.57,225A24.07,24.07,0,0,1,203.86,236a21.47,21.47,0,0,1-12.67,4.51H119.11q-6.44,0-9.21-4.51T109.6,225L161,91.17a24.07,24.07,0,0,1,8.71-10.94,21.46,21.46,0,0,1,12.67-4.5ZM209.63,200.45,247.87,96.31H169.3l-39.53,103Zm-14.79-117-2,5.15h41.19l2-5.15ZM159.11,230.18a14.29,14.29,0,0,0,8.46-3,16.05,16.05,0,0,0,5.79-7.32q1.67-4.34-.17-7.32t-6.18-3a14.3,14.3,0,0,0-8.46,3,16,16,0,0,0-5.79,7.32q-1.67,4.34.17,7.32T159.11,230.18Z"/><path class="cls-3" d="M96,9.88,48.11.22a10.9,10.9,0,0,0-8.86,2.09L.8,32.37A2.07,2.07,0,0,0,1.66,36L49.51,45.7a10.88,10.88,0,0,0,8.86-2.09L88.72,19.89l3.73,15.78a2.78,2.78,0,0,0,.79,5.4l1.29,15.74,10.6-2.51L99.23,39.65a2.78,2.78,0,0,0-1.71-5.18L93.24,16.35l3.58-2.8A2.07,2.07,0,0,0,96,9.88Z"/><path class="cls-3" d="M55.86,52.82a15.06,15.06,0,0,1-6.49.1L26,48.19l4.57,19.36c1,4.25,15.12,6.61,29.55,3.2s26-11.84,25-16.09L80.52,35.3,61.71,50A15,15,0,0,1,55.86,52.82Z"/><path class="cls-3" d="M153.58,48.94,138.09,35.09a3.31,3.31,0,0,0-4.68.26L74.79,98.27A3.31,3.31,0,0,0,74,99.69l-6.12,25a3.31,3.31,0,0,0,4.36,3.9l25-9.14h0l56.59-65.85A3.31,3.31,0,0,0,153.58,48.94ZM78.8,120.06l-3.1-2.78,3.53-14.43,8.58,4L92.75,115Zm65.34-72.95-49.81,56L90.78,100,141,44.27l3.18,2.85Z"/></g></g></svg>