<svg xmlns="http://www.w3.org/2000/svg" viewBox="0 0 251.05 177.31"><defs><style>.cls-1{fill:#fff;}.cls-2{fill:#001f35;}.cls-3{fill:#2980d9;}</style></defs><title>icon-08</title><g id="レイヤー_2" data-name="レイヤー 2"><g id="hospital"><rect class="cls-1" x="9.55" y="6.16" width="151.5" height="120"/><path class="cls-2" d="M0,136.88H169.48V0H0Zm19.84-117H149.64V117H19.84Z"/><path class="cls-2" d="M102.35,146.13H67.11s0,18.52-21.83,18.52v12.66h78.93V164.66C102.35,164.66,102.35,146.13,102.35,146.13Z"/><path class="cls-2" d="M180.12,0V177.31H251V0Zm35.47,133a11.52,11.52,0,1,1,11.52-11.52A11.52,11.52,0,0,1,215.59,133Zm18.17-71.81H198.29V54.08h35.47Zm0-21.28H198.29V32.81h35.47Z"/><path class="cls-3" d="M106.4,67.56V31.16H63.09V67.56H41.43v43.31h86.63V67.56ZM64.18,90.84H54.77V81.43h9.42v9.42Zm25.27,0H80V81.43h9.42Zm8.16-34H88.1v9.51H81.38V56.79H71.87V50.08h9.51V40.57H88.1v9.51h9.51v6.71Zm17.11,34H105.3V81.43h9.42Z"/></g></g></svg>