<svg xmlns="http://www.w3.org/2000/svg" viewBox="0 0 180.07 157.56"><defs><style>.cls-1{fill:#fff;}.cls-2{fill:#001f35;}.cls-3{fill:#2980d9;}</style></defs><title>icon-07</title><g id="レイヤー_2" data-name="レイヤー 2"><g id="e-larning"><rect class="cls-1" x="3.03" y="4.63" width="171.2" height="104.7"/><path class="cls-2" d="M0,0H180.07V112.55H0ZM168.82,101.29v-90H11.25v90Zm-45,45,11.25,11.25H45l11.25-11.25L61.9,123.8h56.27Z"/><path class="cls-3" d="M94.54,23.7,65.84,17.9a6.54,6.54,0,0,0-5.32,1.26l-23.07,18a1.24,1.24,0,0,0,.52,2.2l28.71,5.8A6.53,6.53,0,0,0,72,43.93L90.2,29.7l2.24,9.47a1.67,1.67,0,0,0,.47,3.24l.77,9.44,6.36-1.5-3.54-8.79a1.67,1.67,0,0,0-1-3.11L92.91,27.58l2.15-1.68a1.24,1.24,0,0,0-.52-2.2Z"/><path class="cls-3" d="M70.49,49.46a9,9,0,0,1-3.89.06l-14-2.84L55.3,58.3c.6,2.55,9.07,4,17.73,1.92s15.6-7.1,15-9.65L85.28,38.95,74,47.77A9,9,0,0,1,70.49,49.46Z"/><path class="cls-3" d="M129.12,47.13l-9.29-8.31A2,2,0,0,0,117,39L81.84,76.73a2,2,0,0,0-.45.85l-3.67,15a2,2,0,0,0,2.61,2.34l15-5.49h0l34-39.51A2,2,0,0,0,129.12,47.13ZM84.25,89.8l-1.86-1.67,2.12-8.66,5.15,2.41,3,4.85ZM123.45,46,93.56,79.65l-2.12-1.9,30.1-33.43L123.45,46Z"/></g></g></svg>