<svg xmlns="http://www.w3.org/2000/svg" viewBox="0 0 258.63 261.53"><defs><style>.cls-1{fill:#001f35;}.cls-2{fill:#fff;}.cls-3{fill:#2980d9;}</style></defs><title>icon-04</title><g id="レイヤー_2" data-name="レイヤー 2"><g id="pazzule"><path class="cls-1" d="M191.26,246.18,257.17,93.56c1.1,2.85,1,4.66,1.32,8.29A32.91,32.91,0,0,1,256.64,116l-48.16,133c-2.17,6.36-3.86,8.94-5.39,10-4.22,2.92-5.57,2.45-12.82,2.45l-77.41-2.32c-7.73-.77-12.42-11.17-11.6-18.61Z"/><path class="cls-2" d="M149.91,243.56a18.82,18.82,0,0,0,11-3.8,20.55,20.55,0,0,0,7.53-9.34q2.17-5.54-.22-9.34t-8-3.8a18.83,18.83,0,0,0-11,3.8,20.53,20.53,0,0,0-7.53,9.34q-2.17,5.54.22,9.34T149.91,243.56Z"/><polygon class="cls-2" points="160.97 85.39 252.55 85.39 203.09 212.52 110.35 212.52 160.97 85.39"/><path class="cls-1" d="M247.14,87.4q6.43,0,9.21,4.5t.31,10.94L205.27,236.71a24.07,24.07,0,0,1-8.71,10.94,21.47,21.47,0,0,1-12.67,4.51H111.81q-6.44,0-9.21-4.51t-.31-10.94l51.39-133.86a24.07,24.07,0,0,1,8.71-10.94,21.46,21.46,0,0,1,12.67-4.5ZM202.32,212.14,240.57,108H162L122.47,211Zm-14.79-117-2,5.15h41.19l2-5.15ZM151.8,241.86a14.29,14.29,0,0,0,8.46-3,16.05,16.05,0,0,0,5.79-7.32q1.67-4.34-.17-7.32t-6.18-3a14.3,14.3,0,0,0-8.46,3,16,16,0,0,0-5.79,7.32q-1.67,4.34.17,7.32T151.8,241.86Z"/><path class="cls-3" d="M99.33,2.45A4.2,4.2,0,0,0,93.76.38L55.14,18.05l7,15.39a7.33,7.33,0,1,1,5.34,11.67l7,15.39,15.39-7a7.33,7.33,0,1,0,11.67-5.34l15.39-7Z"/><path class="cls-1" d="M106.6,63.84,87.21,72.71A2.11,2.11,0,0,0,86,74.41v0a2.11,2.11,0,0,0,.85,1.91L89.07,78a3.59,3.59,0,0,1,1.23,4.15,3.59,3.59,0,0,1-4.63,2.12h0a3.6,3.6,0,0,1-2.33-3.65l.22-2.76a2.11,2.11,0,0,0-3-2.08L66.07,82.39l-3.55-7.77a11.05,11.05,0,0,0-9.2-20.1L47.53,41.86a2.11,2.11,0,0,0-2.79-1L4.63,59.17A7.89,7.89,0,0,0,.49,63.62a8,8,0,0,0,.22,6.07l35.34,77.24a7.9,7.9,0,0,0,4.45,4.14,8,8,0,0,0,6.07-.22l77.25-35.35a8,8,0,0,0,4.13-4.45,7.89,7.89,0,0,0-.22-6.07l-18.35-40.1A2.11,2.11,0,0,0,106.6,63.84ZM6.65,67a1.42,1.42,0,0,1,.7-1.88L43.44,48.58l7,15.38a1.15,1.15,0,0,0,2,.2l1.64-2.23a4.55,4.55,0,1,1,3.32,7.24L54.64,69a1.15,1.15,0,0,0-1.13,1.62l7,15.38L51,90.33c-.09-.25-.19-.49-.3-.72A10.11,10.11,0,0,0,32.33,98c.11.23.22.47.35.7l-9.52,4.36ZM80,128.41,43.87,144.93a1.42,1.42,0,0,1-1.88-.7l-16.52-36.1,15.38-7a1.15,1.15,0,0,0,.2-2l-2.23-1.64a4.55,4.55,0,1,1,7.24-3.32l-.22,2.76a1.15,1.15,0,0,0,1.63,1.14l15.38-7,4.36,9.53c-.25.09-.48.19-.72.3a10.11,10.11,0,1,0,8.42,18.39c.23-.11.47-.22.69-.35Zm41.85-20.71a1.42,1.42,0,0,1-.7,1.88L85,126.1l-7-15.38a1.15,1.15,0,0,0-2-.2l-1.64,2.23a4.49,4.49,0,0,1-1.77,1.44,4.56,4.56,0,1,1-1.55-8.68l2.76.22a1.14,1.14,0,0,0,.57-.1,1.15,1.15,0,0,0,.57-1.52l-7-15.38,9.52-4.36c.09.25.19.49.3.72a10.11,10.11,0,1,0,18.39-8.42c-.11-.23-.22-.47-.35-.7l9.52-4.36,16.52,36.1Z"/></g></g></svg>