<svg xmlns="http://www.w3.org/2000/svg" viewBox="0 0 180.07 157.56"><defs><style>.cls-1{fill:#fff;}.cls-2{fill:#001f35;}.cls-3{fill:#2980d9;}</style></defs><title>icon-perfomance-02.png</title><g id="レイヤー_2" data-name="レイヤー 2"><g id="usedcar"><rect class="cls-1" x="6.33" y="7.47" width="169.68" height="98.86"/><path class="cls-2" d="M0,0H180.07V112.55H0ZM168.82,101.29v-90H11.25v90Zm-45,45,11.25,11.25H45l11.25-11.25L61.9,123.8h56.27Z"/><path class="cls-3" d="M63.41,43.63H58.55a1.23,1.23,0,0,1-1.38-1.4V28.35h2.28V41.69h3.08V28.35h2.28V42.23A1.24,1.24,0,0,1,63.41,43.63Z"/><path class="cls-3" d="M73.61,43.27a1.38,1.38,0,0,1-1,.36H68a1.37,1.37,0,0,1-1-.36,1.43,1.43,0,0,1-.36-1.05V38.57h2.28v3.12h2.8v-3l-4.58-4.33a1.56,1.56,0,0,1-.39-.52,1.82,1.82,0,0,1-.11-.7v-3.4a1.4,1.4,0,0,1,.36-1,1.38,1.38,0,0,1,1-.36h4.6a1.37,1.37,0,0,1,1,.36,1.4,1.4,0,0,1,.36,1v3.43H71.69V30.29h-2.8v2.76l4.58,4.31a1.76,1.76,0,0,1,.39.54,1.83,1.83,0,0,1,.11.7v3.63A1.4,1.4,0,0,1,73.61,43.27Z"/><path class="cls-3" d="M75.79,43.63V28.35h6.28v2h-4v4.46h3.44v2H78.07v4.8h4.06v2Z"/><path class="cls-3" d="M90.52,42.85a3,3,0,0,1-2.17.78H83.69V28.35h4.66a2.93,2.93,0,0,1,2.18.79,2.87,2.87,0,0,1,.78,2.11v9.5A2.82,2.82,0,0,1,90.52,42.85ZM89,31.58a1.23,1.23,0,0,0-.36-1,1.39,1.39,0,0,0-1-.33H86v11.4h1.64a1.42,1.42,0,0,0,1.05-.35,1.29,1.29,0,0,0,.35-1Z"/><path class="cls-3" d="M103.31,43.63H98.55a1.22,1.22,0,0,1-1.36-1.4V29.75a1.22,1.22,0,0,1,1.36-1.4h4.76a1.23,1.23,0,0,1,1.4,1.39v3.57h-2.28v-3h-3v11.4h3V38.47h2.28v3.77A1.23,1.23,0,0,1,103.31,43.63Z"/><path class="cls-3" d="M112,43.63l-.46-2.9h-2.86l-.46,2.9h-2.26v0l3-15.26h2.4l2.94,15.26v0Zm-1.9-11.74L109,38.79h2.24Z"/><path class="cls-3" d="M121,43.63l-2.52-7.11V35.14h2.24V30.29h-2.88V43.63h-2.28V28.35h6.06a1.23,1.23,0,0,1,1.38,1.4v5.56a1.24,1.24,0,0,1-1.36,1.4h-.78l2.52,6.84v.08Z"/><path class="cls-3" d="M67,82.67A6.36,6.36,0,1,0,73.36,89,6.36,6.36,0,0,0,67,82.67Zm0,9.48A3.12,3.12,0,1,1,70.12,89,3.13,3.13,0,0,1,67,92.15Z"/><path class="cls-3" d="M111.26,82.67A6.36,6.36,0,1,0,117.62,89,6.36,6.36,0,0,0,111.26,82.67Zm0,9.48A3.12,3.12,0,1,1,114.38,89,3.12,3.12,0,0,1,111.26,92.15Z"/><path class="cls-3" d="M67,88.07a1,1,0,1,0,1,1A1,1,0,0,0,67,88.07Z"/><path class="cls-3" d="M111.26,88.07a1,1,0,1,0,1,1A1,1,0,0,0,111.26,88.07Z"/><path class="cls-3" d="M131.42,77.24,111,70.77l-8.25-7.06a19.16,19.16,0,0,0-11.66-4l-20.63-.1c-2,0-3.14,1.16-4.64,3.06l-5.47,7.23H49.43A3.13,3.13,0,0,0,46,73L48.7,87.9a2.5,2.5,0,0,0,2.5,2.5h7.67A8,8,0,0,1,58.76,89,8.24,8.24,0,1,1,75.13,90.4h28A8.24,8.24,0,1,1,119.5,89a8.55,8.55,0,0,1-.12,1.37h12.19a2.68,2.68,0,0,0,2.5-2.7v-6A5,5,0,0,0,131.42,77.24ZM81.52,71H63.23l5.13-6.78c1.4-1.77,1.87-2.06,2.64-2.06l10.53,0V71Zm3,0V62.21l6.25,0a16.26,16.26,0,0,1,9.77,3.35l6.31,5.4Zm47.07,11.66c-.24.52-1.22.56-2.66.24-2.08-.46-3.65-1.56-3-2.91s2.49-.84,4.16.47C131.29,81.35,131.87,82.12,131.63,82.64Z"/></g></g></svg>