<svg xmlns="http://www.w3.org/2000/svg" viewBox="0 0 240.88 227.91"><defs><style>.cls-1{fill:#fff;}.cls-2{fill:#2980d9;}.cls-3{fill:#001f35;}</style></defs><title>icon-01</title><g id="レイヤー_2" data-name="レイヤー 2"><g id="TV"><rect class="cls-1" x="9" y="124.3" width="103.13" height="76.37"/><path class="cls-2" d="M120.58,115.38H2a2,2,0,0,0-2,2v89.28a2,2,0,0,0,2,2H120.58a2,2,0,0,0,2-2V117.42A2,2,0,0,0,120.58,115.38Zm-107,79.83V128.92h95.54v66.29H13.54Z"/><path class="cls-2" d="M38.45,216.41H27v11.44h0v.06H95.67v-11.5H38.45Z"/><polygon class="cls-2" points="35.5 149.9 35.5 149.9 35.45 149.9 35.45 156.89 42.92 156.89 42.92 174.23 51.75 174.23 51.75 156.89 59.15 156.89 59.17 156.89 59.17 156.89 59.23 156.89 59.23 149.9 35.55 149.9 35.5 149.9"/><polygon class="cls-2" points="90.98 149.96 91.01 149.9 81.57 149.9 78.8 156.49 76.87 160.99 72.21 149.9 65.6 149.9 62.87 149.88 62.88 149.9 62.82 149.9 73.76 174.23 80.02 174.23 87.79 157.03 91.01 149.96 90.98 149.96"/><path class="cls-3" d="M216.56,87.79q0,1.75,0,3.51-.1,62-.21,124c0,6.59-3.94,11.25-10.35,12.41a11.91,11.91,0,0,1-13.27-7.93,19.92,19.92,0,0,1-.81-6.2q-.08-32.8,0-65.6c0-1.29,0-2.58,0-4.09h-8.22v3.59q0,33.85,0,67.7c0,4.92-2,8.75-6.37,11.14a11.61,11.61,0,0,1-12.55-.44c-4.06-2.6-5.68-6.52-5.67-11.27q.05-25.28,0-50.55,0-30.69,0-61.39V99.31c-.33.14-.61.17-.64.27-1.37,4.91-4.94,7.69-9.14,10.16-7.85,4.63-15.48,9.63-23.25,14.4a8.81,8.81,0,0,1-10.88-.71,8.43,8.43,0,0,1-2.3-9.84,12.82,12.82,0,0,1,4.3-4.77c7.29-4.77,14.79-9.22,22.11-14a9.31,9.31,0,0,0,3.33-4c4.58-10.88,9-21.85,13.46-32.78,2.15-5.24,4.47-6.77,10.07-6.77,14.44,0,28.87.07,43.31,0a10.23,10.23,0,0,1,9.65,5.36c6.52,10.69,13.32,21.22,19.73,32a15.33,15.33,0,0,1,2.06,7.88c-.37,12.42-1.12,24.82-1.77,37.23a8.87,8.87,0,0,1-9.19,8.77,8.75,8.75,0,0,1-8.51-9.37Q222,117.08,223,101a10.81,10.81,0,0,0-2-7.57c-1.36-1.84-2.47-3.85-3.69-5.79ZM186.32,64.07a9.48,9.48,0,0,0-.3,1.12c-1.54,10.49-3.09,21-4.56,31.49a3.66,3.66,0,0,0,.58,2.5c1.94,2.51,4.05,4.9,6.27,7.53a58.61,58.61,0,0,1,4.48-5.19c2.35-2.16,2.57-4.56,2.07-7.57q-2.18-13.17-3.77-26.44C190.73,64.48,189.86,63,186.32,64.07Zm16.5,4.43c1.9,0,3.81.1,5.69-.06.61-.05,1.16-.78,1.74-1.2-.57-.54-1.12-1.53-1.71-1.55-3.79-.14-7.59-.15-11.38,0-.6,0-1.17,1-1.76,1.55.67.42,1.32,1.14,2,1.21A53.31,53.31,0,0,0,202.82,68.5ZM187.33,58.17c3.17,0,5.46-1.39,4.83-2.43s-2.51-1.58-3.92-2.13a3.43,3.43,0,0,0-2,.16c-2.06.64-2.46,2-.89,3.47A5.08,5.08,0,0,0,187.33,58.17Zm-2.2,4.63h6.3V59.13h-6.3Z"/><path class="cls-3" d="M212,24.33a24.18,24.18,0,0,1-24.21,24.32A24.32,24.32,0,1,1,187.88,0,24.08,24.08,0,0,1,212,24.33Z"/><path class="cls-2" d="M186.32,64.07c3.54-1.07,4.41.41,4.77,3.43q1.58,13.26,3.77,26.44c.5,3,.28,5.41-2.07,7.57a58.61,58.61,0,0,0-4.48,5.19c-2.22-2.63-4.33-5-6.27-7.53a3.66,3.66,0,0,1-.58-2.5c1.47-10.5,3-21,4.56-31.49A9.48,9.48,0,0,1,186.32,64.07Z"/><path class="cls-2" d="M202.82,68.5c-1.8,0-3.61.12-5.39-.06-.71-.07-1.36-.79-2-1.21.59-.54,1.15-1.53,1.76-1.55,3.79-.14,7.59-.14,11.38,0,.59,0,1.14,1,1.71,1.55-.58.42-1.13,1.14-1.74,1.2C206.62,68.6,204.71,68.5,202.82,68.5Z"/><path class="cls-2" d="M187.33,58.17a5.08,5.08,0,0,1-2-.93c-1.57-1.47-1.17-2.83.89-3.47a3.43,3.43,0,0,1,2-.16c1.41.55,3.25,1,3.92,2.13S190.5,58.19,187.33,58.17Z"/><path class="cls-2" d="M185.13,62.8V59.13h6.3V62.8Z"/></g></g></svg>