<svg xmlns="http://www.w3.org/2000/svg" viewBox="0 0 253.75 289.8"><defs><style>.cls-1{fill:#2980d9;}.cls-2,.cls-3,.cls-5,.cls-7{fill:none;}.cls-2,.cls-3,.cls-5,.cls-6,.cls-7{stroke:#2980d9;stroke-miterlimit:10;}.cls-2,.cls-7{stroke-width:2px;}.cls-3,.cls-7{stroke-linecap:round;}.cls-3{stroke-width:3px;}.cls-4,.cls-6{fill:#fff;}.cls-8{fill:#001f35;}</style></defs><title>icon-15</title><g id="レイヤー_2" data-name="レイヤー 2"><g id="iot_bus" data-name="iot bus"><ellipse class="cls-1" cx="235.36" cy="93.25" rx="17.52" ry="17.18"/><path class="cls-2" d="M163,101.6V155c0,1.26-1.4,2.41-3.57,2.92l-27.59,6.47"/><line class="cls-3" x1="131.15" y1="45.77" x2="131.15" y2="198.61"/><path class="cls-4" d="M236.29,97.87l1.46-2.34,7.16-7V92l-7.16,7-11.93,3.51,3.58-11.7,7.16-7h3.58l-7.16,7-2.39,1.43-1.85,5a5.11,5.11,0,0,1,1.48,1,5,5,0,0,1,1,1.45ZM233,95.53l1.19-2.34L242.52,85l1.19,1.17-8.35,8.19Z"/><ellipse class="cls-1" cx="44.31" cy="100.02" rx="25.56" ry="25.07"/><ellipse class="cls-1" cx="162.45" cy="103.03" rx="19.37" ry="19"/><ellipse class="cls-1" cx="231.2" cy="152.99" rx="22.56" ry="22.12"/><ellipse class="cls-1" cx="205.64" cy="56.95" rx="22.75" ry="22.32"/><path class="cls-4" d="M217.26,49.62a1.61,1.61,0,0,1,1.17.48,1.55,1.55,0,0,1,.49,1.15V65.91a1.55,1.55,0,0,1-.49,1.15,1.61,1.61,0,0,1-1.17.48H194a1.61,1.61,0,0,1-1.17-.48,1.55,1.55,0,0,1-.49-1.15V51.25a1.55,1.55,0,0,1,.49-1.15,1.61,1.61,0,0,1,1.17-.48h5.81a13.16,13.16,0,0,1,.78-2.24,1.72,1.72,0,0,1,1.71-1H209a1.72,1.72,0,0,1,1.71,1,13.16,13.16,0,0,1,.78,2.24ZM205.64,65.81a7.2,7.2,0,0,0,2.87-.57,7.54,7.54,0,0,0,2.34-1.55,7.38,7.38,0,0,0,1.58-2.29,7.07,7.07,0,0,0,0-5.62,7.38,7.38,0,0,0-1.58-2.29,7.54,7.54,0,0,0-2.34-1.55,7.46,7.46,0,0,0-5.73,0,7.54,7.54,0,0,0-2.34,1.55,7.38,7.38,0,0,0-1.58,2.29,7.07,7.07,0,0,0,0,5.62,7.38,7.38,0,0,0,1.58,2.29,7.54,7.54,0,0,0,2.34,1.55A7.2,7.2,0,0,0,205.64,65.81Zm-5.4-7.23a5,5,0,0,1,.43-2.06,5.37,5.37,0,0,1,1.15-1.68,5.49,5.49,0,0,1,1.71-1.13,5.47,5.47,0,0,1,4.2,0,5.49,5.49,0,0,1,1.71,1.13,5.37,5.37,0,0,1,1.15,1.68,5.18,5.18,0,0,1,0,4.12,5.37,5.37,0,0,1-1.15,1.68,5.49,5.49,0,0,1-1.71,1.13,5.47,5.47,0,0,1-4.2,0,5.49,5.49,0,0,1-1.71-1.13,5.37,5.37,0,0,1-1.15-1.68A5,5,0,0,1,200.24,58.58Zm17-4.07V52.88h-3.32v1.63Z"/><ellipse class="cls-1" cx="131.15" cy="29.6" rx="30.18" ry="29.6"/><ellipse class="cls-1" cx="18.48" cy="149.39" rx="18.48" ry="18.12"/><ellipse class="cls-1" cx="94.59" cy="112.89" rx="21.19" ry="19.72"/><path class="cls-4" d="M105.32,103.56a2.48,2.48,0,0,1,1.75.67,2.15,2.15,0,0,1,.72,1.63v15.36a2.15,2.15,0,0,1-.72,1.63,2.48,2.48,0,0,1-1.75.67H83.86a2.48,2.48,0,0,1-1.75-.67,2.15,2.15,0,0,1-.72-1.63V105.86a2.15,2.15,0,0,1,.72-1.63,2.48,2.48,0,0,1,1.75-.67ZM91.68,113.69l-7-7v12Zm-5.75-7.06,8.67,6,8.67-6Zm6,7.34-5.42,6.48h16.14L97.25,114l-2.66,2.64Zm5.57-.29,7,5.06v-12Z"/><path class="cls-4" d="M172.84,109.31a1.17,1.17,0,0,1,.44.88,1.18,1.18,0,0,1-.38.92l-2.14,2.1a1.23,1.23,0,0,1-.94.37,1.2,1.2,0,0,1-.9-.44l-8.36-9.56a6.36,6.36,0,0,1-1.35.52,6,6,0,0,1-1.5.19,6.13,6.13,0,0,1-4.32-1.74,6,6,0,0,1-1.3-1.9,5.76,5.76,0,0,1-.48-2.33,6.23,6.23,0,0,1,.06-.89,5.65,5.65,0,0,1,.19-.85l3.53,3.46a1.4,1.4,0,0,0,1.9,0l2.16-2.12a1.33,1.33,0,0,0,0-1.87l-3.53-3.46a6,6,0,0,1,.87-.19,6.54,6.54,0,0,1,.91-.06A6.13,6.13,0,0,1,162,94.08a6,6,0,0,1,1.3,1.9,5.76,5.76,0,0,1,.48,2.33,5.62,5.62,0,0,1-.19,1.47,6.09,6.09,0,0,1-.53,1.33Z"/><path class="cls-4" d="M237.53,141.35a10.6,10.6,0,0,1,1,2.48,11.44,11.44,0,0,1-.23,6.28,9.56,9.56,0,0,1-1.61,3,8.07,8.07,0,0,1-1.81,1.67,6.79,6.79,0,0,1-2.12.95v7.67H235a.74.74,0,0,1,.54.22.72.72,0,0,1,0,1.05.74.74,0,0,1-.54.22h-7.63a.74.74,0,0,1-.54-.22.72.72,0,0,1,0-1.05.74.74,0,0,1,.54-.22h2.29v-7.67a6.78,6.78,0,0,1-2.12-.95,8,8,0,0,1-1.81-1.67,9.54,9.54,0,0,1-1.61-3,11.43,11.43,0,0,1-.23-6.28,10.56,10.56,0,0,1,1-2.48.68.68,0,0,1,.29-.29.79.79,0,0,1,.38-.1h11.35a.8.8,0,0,1,.38.1A.68.68,0,0,1,237.53,141.35ZM226,142.44a8.75,8.75,0,0,0-.68,2,10,10,0,0,0-.23,2.14v.37H237.3v-.37a10.06,10.06,0,0,0-.23-2.14,8.85,8.85,0,0,0-.68-2Z"/><path class="cls-5" d="M176.62,108.8"/><path class="cls-3" d="M93.41,128.91v52.2c0,2.34,1.35,4.59,3.76,6.26l16.26,11.25"/><path class="cls-6" d="M124.94,36.23q.15.29.28.61t.24.64l2.62.44v2.35l-2.62.44c-.08.22-.16.44-.24.64s-.18.41-.28.61l1.54,2.13-1.68,1.65-2.17-1.51-.62.28-.66.24-.45,2.57h-2.4l-.45-2.57-.66-.24-.62-.28-2.17,1.51-1.69-1.65L114.46,42q-.15-.29-.28-.61c-.09-.21-.17-.42-.24-.64l-2.62-.44V37.92l2.62-.44q.11-.33.24-.64t.28-.61l-1.54-2.13,1.69-1.65L116.78,34l.62-.28.66-.24.45-2.57h2.4l.45,2.57.66.24.62.28,2.17-1.51,1.68,1.65Zm-5.24,5.21a2.34,2.34,0,0,0,1.7-.68,2.36,2.36,0,0,0,0-3.34,2.47,2.47,0,0,0-3.41,0,2.36,2.36,0,0,0,0,3.34A2.34,2.34,0,0,0,119.7,41.45Zm30-17.63-2.51.44q0,.22-.09.44c0,.15-.07.29-.09.44l2.13,1.36-.9,2.17-2.51-.51c-.07.12-.16.25-.24.37l-.24.37,1.46,2.06-1.72,1.69-2.1-1.43-.37.24-.37.24.52,2.46L140.4,35,139,32.93l-.45.09-.45.09-.45,2.46h-2.4l-.45-2.46-.45-.09-.45-.09L132.54,35l-2.21-.88.52-2.46-.37-.24-.37-.24L128,32.64l-1.72-1.69,1.46-2.06c-.07-.12-.16-.24-.24-.37s-.17-.24-.24-.37l-2.51.51-.9-2.17L126,25.14c0-.15-.06-.29-.09-.44s-.07-.29-.09-.44l-2.51-.44V21.47L125.8,21q0-.22.09-.44c0-.15.07-.29.09-.44l-2.13-1.36.9-2.17,2.51.51c.08-.12.16-.24.24-.37s.17-.24.24-.37l-1.46-2.06L128,12.66l2.1,1.43.37-.24.38-.24-.52-2.46,2.21-.88,1.39,2.09.45-.09.45-.09.45-2.46h2.4l.45,2.46.45.09.45.09,1.38-2.09,2.21.88-.52,2.46.37.24.38.24,2.1-1.43,1.72,1.69L145.2,16.4c.08.12.16.24.24.37s.17.24.24.37l2.51-.51.9,2.17L147,20.15c0,.15.06.29.09.44s.07.29.09.44l2.51.44Zm-13.18,3.93a5.07,5.07,0,0,0,3.69-1.49,5.07,5.07,0,0,0,0-7.23,5.32,5.32,0,0,0-7.38,0,5.07,5.07,0,0,0,0,7.23A5.07,5.07,0,0,0,136.47,27.75Z"/><path class="cls-2" d="M46.3,104.77V148c0,1.21,1.37,2.33,3.61,2.94l66.18,18c2,.55,3.27,1.56,3.27,2.66v27.07"/><path class="cls-2" d="M144.39,181.66l94-12.28c2.88-.38,4.65-1.07,4.65-1.82V149.08"/><path class="cls-4" d="M50.08,102.78h5.77v2.83L51.52,107l-1.44,4.25H47.2v-5.66l-4.13-4-7.42,9.71-2.89-2.83L37.71,96.3l-3.88-3.8a3.35,3.35,0,0,1-1-1.83,1.73,1.73,0,0,1,.42-1.59,1.81,1.81,0,0,1,1.62-.41,3.45,3.45,0,0,1,1.87,1l3.88,3.8L53,88.63l2.89,2.83L46,98.73Z"/><path class="cls-4" d="M28.81,145.23a1.52,1.52,0,0,1,.45,1,1.6,1.6,0,0,1-.24,1L25.14,153a1.48,1.48,0,0,1-.89.6,1.52,1.52,0,0,1-1.07-.1l-3-1.45-.18-.09-.2-.11v1.47h-2.7v2.65h-2.7v2.65h-2.7v1.32h-4l.67-4.63,7.52-7.38a.43.43,0,0,1-.09-.13l-.07-.13-1.48-2.91a1.44,1.44,0,0,1-.1-1.05,1.45,1.45,0,0,1,.61-.87l5.84-3.8a1.69,1.69,0,0,1,1.06-.24,1.57,1.57,0,0,1,1,.44l2.13,2.09.94.94,1,.92ZM10.87,156.41,17.43,150l-.95-.93L9.9,155.46ZM27,147.5a.68.68,0,0,0,.19-.47.61.61,0,0,0-.19-.46l-5.73-5.62a.64.64,0,0,0-.46-.19.71.71,0,0,0-.48.19l-.95.93a.68.68,0,0,0-.19.48.61.61,0,0,0,.19.46l5.73,5.62a.64.64,0,0,0,.46.19.71.71,0,0,0,.48-.19Z"/><path class="cls-7" d="M16.75,158.58v21.28c0,1.61,3,3,7.36,3.39l129.13,11.06c2.79.24,4.77,1.15,4.77,2.2v2.1"/><path class="cls-2" d="M203.64,70.5v55.68c0,.91-.95,1.73-2.37,2L148.91,139.9c-2.45.55-4.07,1.95-4.07,3.51v55.2"/><path class="cls-2" d="M233.59,100.51v10.24c0,2.75-3,5.14-7.21,5.78L119.5,132.72c-4.82.73-8.23,3.43-8.3,6.56l-1.54,68.41"/><path class="cls-8" d="M184.55,198.61H66.41a8.73,8.73,0,0,0-8.28,6L49.53,231a25.08,25.08,0,0,0-1.23,7.89v37.56H67.94c0-.2,0-.41,0-.61a18.89,18.89,0,1,1,37.79,0c0,.21,0,.41,0,.61h46.66c0-.2,0-.41,0-.61a18.89,18.89,0,1,1,37.79,0c0,.21,0,.41,0,.61h16.69V220.81A22.2,22.2,0,0,0,184.55,198.61ZM78.75,250.29a2.25,2.25,0,0,1-2.25,2.24H64a2.25,2.25,0,0,1-2.25-2.24V238.77a13.87,13.87,0,0,1,.69-4.34l7.31-22.5a2.26,2.26,0,0,1,2.14-1.55h4.6a2.25,2.25,0,0,1,2.25,2.25v37.67Zm39.85-17.39a1.12,1.12,0,0,1-1.13,1.13H91.62a1.12,1.12,0,0,1-1.12-1.13V211.5a1.13,1.13,0,0,1,1.12-1.13h25.86a1.13,1.13,0,0,1,1.13,1.13Zm38.53,0A1.12,1.12,0,0,1,156,234H129.19a1.12,1.12,0,0,1-1.12-1.13V211.5a1.13,1.13,0,0,1,1.12-1.13H156a1.13,1.13,0,0,1,1.12,1.13v21.41Zm36.12-1.12A2.25,2.25,0,0,1,191,234H170.31a2.25,2.25,0,0,1-2.25-2.25V212.62a2.25,2.25,0,0,1,2.25-2.25h12.16a10.82,10.82,0,0,1,10.8,10.8Z"/><path class="cls-8" d="M86.8,261.92a13.94,13.94,0,1,0,13.94,13.94A13.94,13.94,0,0,0,86.8,261.92Zm0,19.77a5.83,5.83,0,1,1,5.83-5.83A5.83,5.83,0,0,1,86.8,281.7Z"/><path class="cls-8" d="M171.19,261.92a13.94,13.94,0,1,0,13.94,13.94A13.94,13.94,0,0,0,171.19,261.92Zm0,19.77a5.83,5.83,0,1,1,5.83-5.83A5.83,5.83,0,0,1,171.19,281.7Z"/></g></g></svg>