<svg xmlns="http://www.w3.org/2000/svg" viewBox="0 0 264.07 235.51"><defs><style>.cls-1{fill:#001f35;}.cls-2{fill:#fff;}.cls-3{fill:#2980d9;}</style></defs><title>icon-10</title><g id="レイヤー_2" data-name="レイヤー 2"><g id="baseball"><path class="cls-1" d="M196.7,220.16,262.61,67.53c1.1,2.85,1,4.66,1.32,8.29A32.91,32.91,0,0,1,262.08,90L213.92,223c-2.17,6.36-3.86,8.94-5.39,10-4.22,2.92-5.57,2.45-12.82,2.45l-77.41-2.32c-7.73-.77-12.42-11.17-11.6-18.61Z"/><path class="cls-2" d="M155.35,217.54a18.82,18.82,0,0,0,11-3.8,20.55,20.55,0,0,0,7.53-9.34q2.17-5.54-.22-9.34t-8-3.8a18.83,18.83,0,0,0-11,3.8,20.53,20.53,0,0,0-7.53,9.34q-2.17,5.54.22,9.34T155.35,217.54Z"/><polygon class="cls-2" points="166.41 59.37 257.99 59.37 208.53 186.5 115.79 186.5 166.41 59.37"/><path class="cls-1" d="M252.58,61.38q6.43,0,9.21,4.5t.31,10.94L210.71,210.69A24.07,24.07,0,0,1,202,221.63a21.47,21.47,0,0,1-12.67,4.51H117.25q-6.44,0-9.21-4.51t-.31-10.94L159.12,76.82a24.07,24.07,0,0,1,8.71-10.94,21.46,21.46,0,0,1,12.67-4.5ZM207.76,186.11,246,82H167.44l-39.53,103ZM193,69.1l-2,5.15h41.19l2-5.15ZM157.24,215.84a14.29,14.29,0,0,0,8.46-3,16.05,16.05,0,0,0,5.79-7.32q1.67-4.34-.17-7.32t-6.18-3a14.3,14.3,0,0,0-8.46,3,16,16,0,0,0-5.79,7.32q-1.67,4.34.17,7.32T157.24,215.84Z"/><path class="cls-3" d="M89.63,109.58l0,0h0l.47.39c1.29,1.11,2.51,2.17,3.64,3.17a31.26,31.26,0,0,0,8.35-8.35q-1.7-1.92-3.6-4.14l0,0h0c-.11.17-.25.32-.36.49a36.23,36.23,0,0,1-8.49,8.37Z"/><path class="cls-3" d="M98.2,117.18l0,0h0l.7.64c3.79,3.53,6.17,6,7.18,7L106,125c-1.92,2.19,4.09,8.86,4.09,8.86a4.07,4.07,0,0,0,3.87-.51c.91-.69,3-2.61,4.35-4s3.29-3.42,4-4.33a4.06,4.06,0,0,0,.51-3.88s-6.67-6-8.86-4.11l-.13.12c-1.13-1.07-3.8-3.68-7.7-7.91l0,0h0c-.08.11-.17.21-.25.32a36.21,36.21,0,0,1-7.63,7.56Z"/><path class="cls-3" d="M2.12,33.72C2.24,33.86,30.85,66,60.21,86.8c9.9,7,18.14,13.42,24.78,18.9a31.4,31.4,0,0,0,9.65-9.65c-5.48-6.64-11.87-14.87-18.9-24.78C54.9,41.91,22.8,13.3,22.65,13.18c-6.39-5.56-13.72,1.28-16.49,4S-3.44,27.33,2.12,33.72Z"/><path class="cls-3" d="M122.82,30.11a22.08,22.08,0,0,0-.07-16l0,0h0l-.15.07A20,20,0,0,0,112.05,42,22.08,22.08,0,0,0,122.82,30.11Z"/><path class="cls-3" d="M120.79,10.23l0,0h0c-.2-.3-.45-.56-.66-.85A22,22,0,0,0,96.2.81l0,0h0c.19.38.34.77.51,1.16A24.24,24.24,0,0,1,83.43,34.12l0,0h0c.21.31.46.58.68.88A22,22,0,0,0,108,43.55l0,0h0c-.19-.38-.34-.77-.51-1.16a24.24,24.24,0,0,1,13.28-32.11Z"/><path class="cls-3" d="M93.1,18.72a20,20,0,0,0-.92-16.36l0,0h0L92,2.44A22.15,22.15,0,0,0,81.48,30.28,20,20,0,0,0,93.1,18.72Z"/></g></g></svg>