<svg xmlns="http://www.w3.org/2000/svg" viewBox="0 0 261.28 245.74"><defs><style>.cls-1{fill:#001f35;}.cls-2{fill:#fff;}.cls-3{fill:#2980d9;}</style></defs><title>icon-06</title><g id="レイヤー_2" data-name="レイヤー 2"><g id="curation"><path class="cls-1" d="M193.91,230.4,259.82,77.77c1.1,2.85,1,4.66,1.32,8.29a32.91,32.91,0,0,1-1.86,14.16l-48.16,133c-2.17,6.36-3.86,8.94-5.39,10-4.22,2.92-5.57,2.45-12.82,2.45l-77.41-2.32c-7.73-.77-12.42-11.17-11.6-18.61Z"/><path class="cls-2" d="M152.55,227.77a18.82,18.82,0,0,0,11-3.8,20.55,20.55,0,0,0,7.53-9.34q2.17-5.54-.22-9.34t-8-3.8a18.83,18.83,0,0,0-11,3.8,20.53,20.53,0,0,0-7.53,9.34q-2.17,5.54.22,9.34T152.55,227.77Z"/><polygon class="cls-2" points="163.62 69.6 255.2 69.6 205.74 196.73 113 196.73 163.62 69.6"/><path class="cls-1" d="M249.78,71.62q6.43,0,9.21,4.5t.31,10.94L207.91,220.93a24.07,24.07,0,0,1-8.71,10.94,21.47,21.47,0,0,1-12.67,4.51H114.46q-6.44,0-9.21-4.51t-.31-10.94L156.33,87.06A24.07,24.07,0,0,1,165,76.12a21.46,21.46,0,0,1,12.67-4.5ZM205,196.35,243.22,92.21H164.65l-39.53,103Zm-14.79-117-2,5.15H229.4l2-5.15ZM154.45,226.07a14.29,14.29,0,0,0,8.46-3,16.05,16.05,0,0,0,5.79-7.32q1.67-4.34-.17-7.32t-6.18-3a14.3,14.3,0,0,0-8.46,3,16,16,0,0,0-5.79,7.32q-1.67,4.34.17,7.32T154.45,226.07Z"/><rect class="cls-2" x="18.55" y="21.25" width="97.82" height="93.53" transform="translate(-22.46 34.98) rotate(-25.06)"/><path class="cls-3" d="M88.19.82,6,36.38A9.92,9.92,0,0,0,.82,49.43L35,128.48a9.91,9.91,0,0,0,13,5.16l82.21-35.56a9.91,9.91,0,0,0,5.16-13L101.23,6A9.92,9.92,0,0,0,88.19.82ZM125.8,88.63l.08.18L44.29,124.1l-29.86-69L96,19.78Z"/><polygon class="cls-3" points="36.35 75.14 36.37 75.17 39.47 73.82 37.5 69.26 35.91 65.52 44.94 71.46 47.58 70.32 41.29 55.78 38.18 57.12 40.14 61.66 41.73 65.41 32.72 59.48 30.08 60.63 36.34 75.09 36.35 75.14"/><polygon class="cls-3" points="61.3 61.05 54.71 63.9 53.36 60.78 58.97 58.35 57.76 55.55 52.15 57.97 50.85 54.97 57.44 52.12 56.22 49.32 46.53 53.51 52.82 68.05 62.51 63.86 61.3 61.05"/><polygon class="cls-3" points="69.47 60.85 72.04 59.74 71.46 54.65 71.01 50.48 77.02 57.58 79.59 56.47 77.69 43.59 77.21 40.28 77.2 40.28 77.2 40.24 73.96 41.65 74.8 46.7 75.49 50.99 69.4 43.62 67.08 44.62 67.73 49.73 68.26 54.12 62.54 46.58 60 47.69 59.33 47.96 59.34 47.97 59.3 47.98 69.47 60.85"/><path class="cls-3" d="M89.68,48.92a7,7,0,0,1-1.92.53,3.81,3.81,0,0,1-1.88-.25l-.14-.05h0L84.56,52l.17.07a6.36,6.36,0,0,0,3,.48,10.42,10.42,0,0,0,3.11-.85,8.11,8.11,0,0,0,2-1.22,5.72,5.72,0,0,0,1.36-1.62,4.45,4.45,0,0,0,.55-1.9,4.65,4.65,0,0,0-.41-2.09,6,6,0,0,0-1-1.66,3.43,3.43,0,0,0-1.46-1A3.79,3.79,0,0,0,90.4,42a7.85,7.85,0,0,0-1.83.31l-1.81.48a2.77,2.77,0,0,1-.8.12,2,2,0,0,1-.61-.1,1.19,1.19,0,0,1-.45-.3,1.58,1.58,0,0,1-.29-.45,1.7,1.7,0,0,1,0-1.36,2.3,2.3,0,0,1,1.32-1.14,7.45,7.45,0,0,1,1.51-.46,3.06,3.06,0,0,1,1.69.18l.17.06,1.11-2.76,0,0h0v0l-.17-.07a6.08,6.08,0,0,0-2.65-.42,8.83,8.83,0,0,0-2.8.75,7.08,7.08,0,0,0-2,1.25,5.16,5.16,0,0,0-1.21,1.62,4.37,4.37,0,0,0-.41,1.86,5,5,0,0,0,.43,2A4.21,4.21,0,0,0,83.95,46a4.38,4.38,0,0,0,1.53.27,7,7,0,0,0,1.85-.28l1.81-.47a4.3,4.3,0,0,1,.84-.16,1.49,1.49,0,0,1,.54.08,1.55,1.55,0,0,1,.85.89,1.48,1.48,0,0,1-.06,1.43A3.37,3.37,0,0,1,89.68,48.92Z"/><polygon class="cls-3" points="99.07 57.74 73.23 68.91 73.15 68.94 73.15 68.95 73.12 68.96 74.37 71.84 100.31 60.61 99.09 57.79 99.08 57.77 99.08 57.77 99.07 57.74"/><polygon class="cls-3" points="102.3 65.21 76.46 76.38 76.39 76.42 76.35 76.43 77.6 79.31 103.54 68.08 102.32 65.25 102.31 65.24 102.31 65.24 102.3 65.21"/><polygon class="cls-3" points="79.62 83.88 79.62 83.88 79.58 83.9 80.83 86.77 102.78 77.28 101.56 74.44 101.55 74.43 101.54 74.4 79.68 83.86 79.62 83.88"/><path class="cls-3" d="M40,83.28l10.49,24.24L77.06,96,66.57,71.79,40,83.28Zm30.2,8.16L48.34,84.52l15.92-6.88L67.88,86ZM69,94.67l-16.21,7-6.1-14.1,12.67,4Z"/></g></g></svg>