<svg xmlns="http://www.w3.org/2000/svg" viewBox="0 0 180.07 157.56"><defs><style>.cls-1{fill:#fff;}.cls-2{fill:#001f35;}.cls-3{fill:#2980d9;}</style></defs><title>icon-11</title><g id="レイヤー_2" data-name="レイヤー 2"><g id="game"><rect class="cls-1" x="5.17" y="6.12" width="170.08" height="102.51"/><path class="cls-2" d="M0,0H180.07V112.55H0ZM168.82,101.29v-90H11.25v90Zm-45,45,11.25,11.25H45l11.25-11.25L61.9,123.8h56.27Z"/><path class="cls-3" d="M129.28,68.84c-2.11-28.11-13-41.21-24.32-41.21-8.5,0-11.24,6.07-14.93,6.07s-6.43-6.07-14.93-6.07c-11.3,0-22.21,13.1-24.32,41.21-.8,8.9,2.8,14.56,8.61,16.27s13.06-2.54,19-11.14C81,70.15,85.49,65,90,65s9,5.16,11.65,9c5.92,8.6,13.1,12.87,19,11.14S130.09,77.74,129.28,68.84ZM81.23,56H75.52v5.71H69.26V56H63.56V49.76h5.71V44.05h6.26v5.71h5.71Zm18.94.82a3.3,3.3,0,1,1,3.3-3.3A3.3,3.3,0,0,1,100.17,56.84Zm8,8a3.3,3.3,0,1,1,3.3-3.3A3.3,3.3,0,0,1,108.14,64.81Zm0-15.95a3.3,3.3,0,1,1,3.3-3.3A3.3,3.3,0,0,1,108.14,48.86Zm8,8a3.3,3.3,0,1,1,3.3-3.3A3.3,3.3,0,0,1,116.12,56.84Z"/></g></g></svg>