<svg xmlns="http://www.w3.org/2000/svg" viewBox="0 0 213.11 227.13"><defs><style>.cls-1{fill:#fff;}.cls-2{fill:#2980d9;}.cls-3{fill:#001f35;stroke-width:2px;}.cls-3,.cls-4{stroke:#fff;stroke-miterlimit:10;}.cls-4{fill:none;stroke-width:0.75px;}</style></defs><title>icon-14</title><g id="レイヤー_2" data-name="レイヤー 2"><g id="AR"><rect class="cls-1" x="11.36" y="6.96" width="123.21" height="212.91"/><path class="cls-2" d="M82.61,221.91V77h65.25V221.91Zm8.16-126.8v18.11h16.31V95.11Zm0,36.23v18.11h16.31V131.33Zm0,36.23v18.11h16.31V167.56Zm32.63-72.46v18.11H139.7V95.11Zm0,36.23v18.11H139.7V131.33Zm0,36.23v18.11H139.7V167.56ZM156,131.33h57.09v-9.06H156Zm0,9.06h57.09v81.52H196.8V185.68H172.33v36.23H156Z"/><path class="cls-3" d="M120.6,1a20.35,20.35,0,0,1,14.95,6.16,20.35,20.35,0,0,1,6.16,14.95V205a21,21,0,0,1-21.11,21.11H22.11A20.35,20.35,0,0,1,7.16,220,20.35,20.35,0,0,1,1,205V22.11A20.35,20.35,0,0,1,7.16,7.16,20.35,20.35,0,0,1,22.11,1Zm7,168.84V29.14H15.07v140.7ZM43.21,11.55v7H99.49v-7Zm28.14,200.5a14.07,14.07,0,1,0-10-24.07,14.07,14.07,0,0,0,10,24.07Z"/><rect class="cls-2" x="22" y="38.37" width="65.68" height="24.68"/><line class="cls-4" x1="25.79" y1="42.27" x2="83.91" y2="42.27"/><line class="cls-4" x1="25.79" y1="47.25" x2="83.91" y2="47.25"/><line class="cls-4" x1="25.79" y1="52.22" x2="83.91" y2="52.22"/><line class="cls-4" x1="25.79" y1="57.19" x2="60.28" y2="57.19"/><polyline class="cls-2" points="77.07 62.3 87.64 72.74 87.68 62.3"/><rect class="cls-2" x="22" y="107.44" width="51.89" height="30.43"/><line class="cls-4" x1="25" y1="112.25" x2="70.91" y2="112.25"/><line class="cls-4" x1="25" y1="118.38" x2="70.91" y2="118.38"/><line class="cls-4" x1="25" y1="124.51" x2="70.91" y2="124.51"/><line class="cls-4" x1="25" y1="130.64" x2="52.24" y2="130.64"/><polyline class="cls-2" points="66.5 108.44 74.85 101.03 73.89 108.44"/><path class="cls-1" d="M61.35,188a14.07,14.07,0,0,0,10,24.07,14.07,14.07,0,1,0-10-24.07"/></g></g></svg>