<svg xmlns="http://www.w3.org/2000/svg" viewBox="0 0 180.07 157.56"><defs><style>.cls-1{fill:#fff;}.cls-2{fill:#001f35;}.cls-3{fill:#2980d9;}</style></defs><title>icon-03</title><g id="レイヤー_2" data-name="レイヤー 2"><g id="movie"><rect class="cls-1" x="4.12" y="3.63" width="172.09" height="103"/><path class="cls-2" d="M0,0H180.07V112.55H0ZM168.82,101.29v-90H11.25v90Zm-45,45,11.25,11.25H45l11.25-11.25L61.9,123.8h56.27Z"/><path class="cls-3" d="M112.63,39.18q.53,2,.89,4t.63,4.17q.26,2.14.41,4.34t.14,4.46q0,2.26-.14,4.46t-.41,4.34q-.26,2.14-.63,4.17t-.89,4q-2.6.39-5.32.67t-5.56.48q-2.84.19-5.76.29t-5.95.1q-3,0-5.95-.1t-5.76-.29q-2.84-.19-5.56-.48t-5.32-.67q-.53-2-.89-4t-.63-4.17q-.26-2.14-.41-4.34t-.14-4.46q0-2.26.14-4.46t.41-4.34q.26-2.14.63-4.17t.89-4q2.6-.39,5.32-.67T78.33,38q2.84-.19,5.76-.29t5.95-.1q3,0,5.95.1t5.76.29q2.84.19,5.56.48T112.63,39.18ZM83.87,65.38l15.42-9.25L83.87,46.88Z"/></g></g></svg>